<?xml version="1.0" standalone="no"?>
<!DOCTYPE svg PUBLIC "-//W3C//DTD SVG 20010904//EN"
 "http://www.w3.org/TR/2001/REC-SVG-20010904/DTD/svg10.dtd">
<svg version="1.0" xmlns="http://www.w3.org/2000/svg"
 width="700.000000pt" height="700.000000pt" viewBox="0 0 700.000000 700.000000"
 preserveAspectRatio="xMidYMid meet">
<metadata>
Created by potrace 1.11, written by Peter Selinger 2001-2013
</metadata>
<g transform="translate(0.000000,700.000000) scale(0.100000,-0.100000)"
fill="#000000" stroke="none">
<path d="M3215 6989 c-847 -72 -1612 -430 -2201 -1031 -199 -203 -302 -328
-439 -538 -300 -457 -480 -952 -551 -1515 -22 -173 -25 -592 -5 -765 24 -215
92 -560 109 -560 4 0 611 604 1349 1342 l1343 1343 655 -655 655 -655 -491
-690 c-270 -380 -512 -719 -537 -755 -32 -46 197 176 774 747 450 446 891 884
979 972 l160 161 926 -926 927 -927 31 133 c73 304 96 509 95 840 0 408 -47
704 -171 1085 -220 675 -662 1288 -1238 1715 -612 455 -1345 694 -2105 689
-91 -1 -210 -6 -265 -10z"/>
</g>
</svg>
